<?xml version="1.0" standalone="no"?>
<!DOCTYPE svg PUBLIC "-//W3C//DTD SVG 20010904//EN"
 "http://www.w3.org/TR/2001/REC-SVG-20010904/DTD/svg10.dtd">
<svg version="1.0" xmlns="http://www.w3.org/2000/svg"
 width="200.000000pt" height="200.000000pt" viewBox="0 0 200.000000 200.000000"
 preserveAspectRatio="xMidYMid meet">
<metadata>
Created by potrace 1.14, written by Peter Selinger 2001-2017
</metadata>
<g transform="translate(0.000000,200.000000) scale(0.100000,-0.100000)"
fill="#000000" stroke="none">
<path d="M860 1764 c-303 -60 -555 -303 -616 -594 -54 -258 19 -516 201 -709
82 -88 202 -161 333 -204 57 -19 90 -22 222 -22 132 0 165 3 222 22 254 83
440 268 520 518 28 86 35 295 14 395 -37 173 -163 362 -306 460 -149 101 -242
131 -425 135 -77 2 -151 1 -165 -1z m719 -353 c-1 -13 -2 -13 -6 2 -2 9 -9 17
-14 17 -5 0 -9 6 -9 14 0 8 -11 23 -25 34 -14 11 -25 24 -25 28 1 5 19 -11 40
-35 22 -24 39 -51 39 -60z m-62 7 c-3 -8 -6 -5 -6 6 -1 11 2 17 5 13 3 -3 4
-12 1 -19z m-10 -85 c-3 -10 -5 -2 -5 17 0 19 2 27 5 18 2 -10 2 -26 0 -35z
m143 -28 c0 -5 -5 -3 -10 5 -5 8 -10 20 -10 25 0 6 5 3 10 -5 5 -8 10 -19 10
-25z m-26 -11 c3 -8 2 -12 -4 -9 -6 3 -10 10 -10 16 0 14 7 11 14 -7z m-134
-51 c-11 -17 -11 -17 -6 0 3 10 7 28 7 40 2 22 2 22 6 0 2 -12 -1 -30 -7 -40z
m191 -9 c5 -15 8 -29 5 -31 -2 -2 -8 10 -14 26 -13 38 -5 41 9 5z m-24 -26
c-3 -8 -6 -5 -6 6 -1 11 2 17 5 13 3 -3 4 -12 1 -19z m-561 -12 c28 -13 63
-39 76 -57 114 -153 15 -359 -172 -359 -126 0 -220 93 -220 218 0 91 44 161
124 198 66 31 126 31 192 0z m384 -34 c0 -15 -2 -15 -10 -2 -13 20 -13 33 0
25 6 -3 10 -14 10 -23z m-10 -37 c0 -5 -5 -3 -10 5 -8 12 -10 12 -10 1 0 -8
-2 -12 -5 -9 -3 3 -2 13 1 22 5 14 9 15 15 4 5 -7 9 -17 9 -23z m238 -20 c0
-24 -2 -25 -5 -7 -2 12 -8 20 -12 17 -5 -2 -6 7 -3 21 6 34 22 10 20 -31z
m-21 -47 c-3 -8 -6 -5 -6 6 -1 11 2 17 5 13 3 -3 4 -12 1 -19z m30 -60 c-2
-13 -4 -3 -4 22 0 25 2 35 4 23 2 -13 2 -33 0 -45z m-356 -47 c-17 -23 -20
-35 -12 -49 8 -16 6 -18 -19 -18 -21 0 -27 3 -22 15 4 10 7 11 10 3 2 -7 8
-12 14 -12 6 0 7 7 4 15 -5 15 34 88 42 80 3 -2 -6 -17 -17 -34z m339 -14 c-1
-24 -103 -117 -116 -104 -2 2 7 10 21 17 27 15 35 36 9 26 -9 -3 -12 -2 -9 5
4 6 14 8 22 5 18 -7 66 43 58 61 -2 8 0 11 5 8 6 -3 10 -12 10 -18z m-390 -77
c0 -5 -5 -10 -11 -10 -5 0 -7 5 -4 10 3 6 8 10 11 10 2 0 4 -4 4 -10z m245 0
c-27 -12 -43 -12 -25 0 8 5 22 9 30 9 10 0 8 -3 -5 -9z m139 -67 c-38 -131
-131 -269 -238 -355 -78 -63 -121 -83 -178 -82 -123 1 -310 155 -417 345 -17
31 -31 58 -31 61 0 2 26 -8 58 -23 93 -45 206 -63 352 -56 177 8 312 48 417
123 27 19 49 34 49 34 1 0 -4 -21 -12 -47z m-428 25 c4 -6 3 -8 -4 -4 -6 3
-13 2 -17 -4 -3 -5 -12 -10 -18 -10 -7 0 -3 7 7 15 24 18 23 18 32 3z m264
-18 c-8 -5 -19 -10 -25 -10 -5 0 -3 5 5 10 8 5 20 10 25 10 6 0 3 -5 -5 -10z
m-113 -16 c-3 -3 -12 -4 -19 -1 -8 3 -5 6 6 6 11 1 17 -2 13 -5z m38 -4 c3 -5
-1 -10 -10 -10 -9 0 -13 5 -10 10 3 6 8 10 10 10 2 0 7 -4 10 -10z m-265 -15
c-14 -16 -12 -17 40 -17 l35 0 -35 -7 c-19 -4 -43 -2 -52 3 -15 9 -15 11 0 23
23 17 27 16 12 -2z m229 1 c-2 -2 -17 -6 -34 -10 -22 -5 -26 -4 -15 4 14 9 59
15 49 6z m-89 -16 c-8 -5 -24 -9 -35 -9 -16 1 -16 2 5 9 35 11 48 11 30 0z"/>
</g>
</svg>
